<svg width="57" height="60" viewBox="0 0 57 60" fill="none" xmlns="http://www.w3.org/2000/svg">
<path d="M30.3741 3.06373L50.7937 13.2765C52.5804 14.0425 53.6014 15.8297 53.6014 17.8722V42.1276C53.6014 44.1701 52.5804 45.9573 50.7937 46.7233L30.3741 56.9361C28.8427 57.702 27.3112 57.702 25.7797 56.9361L5.36015 46.7233C3.57344 45.9573 2.55246 44.1701 2.55246 42.1276V17.8722C2.55246 15.8297 3.57344 14.0425 5.36015 13.2765L25.7797 3.06373C27.3112 2.29777 28.8427 2.29777 30.3741 3.06373Z" stroke="#00F0FF" stroke-width="2" stroke-linecap="round" stroke-linejoin="round"/>
<path d="M3.31818 15.064L28.0769 27.5746L52.8357 15.064" stroke="#00F0FF" stroke-width="2" stroke-linecap="round" stroke-linejoin="round"/>
<path d="M28.0769 57.447V27.5747" stroke="#00F0FF" stroke-width="2" stroke-linecap="round" stroke-linejoin="round"/>
<path d="M15.3147 8.42529L40.8392 21.1913" stroke="#00F0FF" stroke-width="2" stroke-linecap="round" stroke-linejoin="round"/>
</svg>
