<svg width="59" height="60" viewBox="0 0 59 60" fill="none" xmlns="http://www.w3.org/2000/svg">
<g clip-path="url(#clip0_139_423)">
<path d="M46.8142 13.278C45.378 13.278 44.0062 13.5271 42.7308 13.9928C41.9163 14.2852 41.1446 14.6643 40.4158 15.1191C36.9433 17.2852 34.6283 21.1733 34.6283 25.6029C34.6283 32.4043 40.0836 37.917 46.8142 37.917C53.5448 37.917 59 32.4043 59 25.6029C59 18.8014 53.5448 13.278 46.8142 13.278ZM46.8142 31.5487C43.5668 31.5487 40.9302 28.8845 40.9302 25.6029C40.9302 22.3213 43.5668 19.657 46.8142 19.657C50.0616 19.657 52.6981 22.3213 52.6981 25.6029C52.6981 28.8845 50.0616 31.5487 46.8142 31.5487Z" fill="#00F0FF"/>
<path d="M12.1858 13.278C5.45522 13.278 0 18.7906 0 25.5921C0 32.3935 5.45522 37.9061 12.1858 37.9061C18.9164 37.9061 24.3717 32.3935 24.3717 25.5921C24.3717 18.7906 18.9272 13.278 12.1858 13.278ZM12.1858 31.5487C8.93842 31.5487 6.30191 28.8845 6.30191 25.6029C6.30191 22.3213 8.93842 19.657 12.1858 19.657C15.4332 19.657 18.0698 22.3213 18.0698 25.6029C18.0698 28.8845 15.444 31.5487 12.1858 31.5487Z" fill="#00F0FF"/>
<path d="M35.6251 12.13C34.8963 11.8484 34.1675 11.6534 33.4387 11.6101C35.8823 11.3718 37.9186 9.69313 38.6903 7.41876C38.7975 7.92779 38.9689 8.41515 39.1833 8.88086C40.5015 11.6859 43.5453 13.8953 43.7168 16.6787C43.8347 18.7798 39.9014 13.8087 35.6251 12.13Z" fill="#00F0FF"/>
<path d="M33.428 11.6101C33.2243 11.6318 33.0207 11.6426 32.8171 11.6426C32.7206 11.6426 32.6242 11.6426 32.5277 11.6318C32.8278 11.5993 33.1279 11.5993 33.428 11.6101Z" fill="white"/>
<path d="M33.428 0C30.2449 0 27.6619 2.61011 27.6619 5.82671C27.6619 9.04332 30.2449 11.6534 33.428 11.6534C36.6111 11.6534 39.194 9.04332 39.194 5.82671C39.194 2.61011 36.6111 0 33.428 0ZM33.428 8.63177C31.8954 8.63177 30.6414 7.37545 30.6414 5.81589C30.6414 4.25632 31.8846 3 33.428 3C34.9606 3 36.2145 4.25632 36.2145 5.81589C36.2145 7.37545 34.9713 8.63177 33.428 8.63177Z" fill="#00F0FF"/>
<path d="M4.68356 48.2599V59.6101H0V43.6895H6.10899C8.78837 43.6895 10.8783 44.3069 12.4002 45.5307C14.2007 47.0036 15.101 48.9964 15.101 51.509C15.101 53.9242 14.3293 55.8845 12.7967 57.4116C11.2534 58.9386 9.28138 59.6968 6.8485 59.6968C6.55913 59.6968 6.09827 59.6859 5.45522 59.6534V54.9747H6.20545C8.93842 54.9747 10.2995 53.8159 10.2995 51.509C10.2995 49.343 8.95986 48.2599 6.26975 48.2599H4.68356Z" fill="#00F0FF"/>
<path d="M25.6792 49.8737V53.4152H22.6247C22.2067 53.4152 21.9173 53.4802 21.7459 53.5993C21.5744 53.7184 21.4886 53.935 21.4886 54.2275C21.4886 54.5632 21.5744 54.7798 21.7566 54.8881C21.9388 54.9964 22.2925 55.0506 22.8391 55.0506H25.99V59.5993H22.3032C20.5669 59.5993 19.2487 59.1769 18.3377 58.343C17.4267 57.509 16.9659 56.296 16.9659 54.7256V48.4874C16.9659 46.9603 17.3946 45.7798 18.2627 44.9459C19.1308 44.1011 20.3419 43.6895 21.9173 43.6895H25.99V48.2599H22.9998C22.196 48.2599 21.7887 48.5199 21.7887 49.0506C21.7887 49.3646 21.8852 49.5812 22.0781 49.7004C22.271 49.8195 22.614 49.8845 23.107 49.8845H25.6792V49.8737Z" fill="#00F0FF"/>
<path d="M36.1181 43.2888C38.3473 43.2888 40.2658 44.1119 41.8627 45.7473C43.4596 47.3827 44.2527 49.3538 44.2527 51.639C44.2527 53.9675 43.4489 55.9386 41.8412 57.5632C40.2336 59.1877 38.283 60 35.9788 60C33.6959 60 31.7453 59.1877 30.127 57.5524C28.5086 55.917 27.7048 53.9459 27.7048 51.639C27.7048 49.3105 28.5193 47.3285 30.1484 45.7148C31.7668 44.1011 33.7602 43.2888 36.1181 43.2888ZM35.9788 47.9783C35.0142 47.9783 34.1996 48.3357 33.5244 49.0506C32.8492 49.7654 32.5063 50.6318 32.5063 51.639C32.5063 52.6462 32.8492 53.5126 33.5244 54.2274C34.2104 54.9423 35.0249 55.2997 35.9788 55.2997C36.9433 55.2997 37.7686 54.9423 38.4438 54.2274C39.119 53.5126 39.4512 52.6462 39.4512 51.6282C39.4512 50.6101 39.119 49.7437 38.4438 49.0289C37.7686 48.3358 36.9433 47.9783 35.9788 47.9783Z" fill="#00F0FF"/>
<path d="M51.1226 47.9675V59.6101H46.439V43.6895H52.4516C54.2843 43.6895 55.699 44.1444 56.7064 45.065C57.8318 46.0939 58.3891 47.3935 58.3891 48.9747C58.3891 50.5885 57.6925 51.9423 56.2992 53.0469L59 59.6101H54.0806L51.8085 54.4766V50.3827H52.1729C53.1589 50.3827 53.6519 49.9603 53.6519 49.1047C53.6519 48.3466 53.0839 47.9784 51.9479 47.9784H51.1226V47.9675Z" fill="#00F0FF"/>
</g>
<defs>
<clipPath id="clip0_139_423">
<rect width="59" height="60" fill="white"/>
</clipPath>
</defs>
</svg>
